<svg width="25" height="24" viewBox="0 0 25 24" fill="none" xmlns="http://www.w3.org/2000/svg">
<g id="copyright">
<path id="Vector" d="M11.0068 10.86C11.0568 10.53 11.1668 10.24 11.3068 9.99C11.4468 9.74 11.6468 9.53 11.8968 9.37C12.1368 9.22 12.4368 9.15 12.8068 9.14C13.0368 9.15 13.2468 9.19 13.4368 9.27C13.6368 9.36 13.8168 9.48 13.9568 9.63C14.0968 9.78 14.2068 9.96 14.2968 10.16C14.3868 10.36 14.4268 10.58 14.4368 10.8H16.2268C16.2068 10.33 16.1168 9.9 15.9468 9.51C15.7768 9.12 15.5468 8.78 15.2468 8.5C14.9468 8.22 14.5868 8 14.1668 7.84C13.7468 7.68 13.2868 7.61 12.7768 7.61C12.1268 7.61 11.5568 7.72 11.0768 7.95C10.5968 8.18 10.1968 8.48 9.87676 8.87C9.55676 9.26 9.31676 9.71 9.16676 10.23C9.01676 10.75 8.92676 11.29 8.92676 11.87V12.14C8.92676 12.72 9.00676 13.26 9.15676 13.78C9.30676 14.3 9.54676 14.75 9.86676 15.13C10.1868 15.51 10.5868 15.82 11.0668 16.04C11.5468 16.26 12.1168 16.38 12.7668 16.38C13.2368 16.38 13.6768 16.3 14.0868 16.15C14.4968 16 14.8568 15.79 15.1668 15.52C15.4768 15.25 15.7268 14.94 15.9068 14.58C16.0868 14.22 16.1968 13.84 16.2068 13.43H14.4168C14.4068 13.64 14.3568 13.83 14.2668 14.01C14.1768 14.19 14.0568 14.34 13.9068 14.47C13.7568 14.6 13.5868 14.7 13.3868 14.77C13.1968 14.84 12.9968 14.86 12.7868 14.87C12.4268 14.86 12.1268 14.79 11.8968 14.64C11.6468 14.48 11.4468 14.27 11.3068 14.02C11.1668 13.77 11.0568 13.47 11.0068 13.14C10.9568 12.81 10.9268 12.47 10.9268 12.14V11.87C10.9268 11.52 10.9568 11.19 11.0068 10.86ZM12.9268 2C7.40676 2 2.92676 6.48 2.92676 12C2.92676 17.52 7.40676 22 12.9268 22C18.4468 22 22.9268 17.52 22.9268 12C22.9268 6.48 18.4468 2 12.9268 2ZM12.9268 20C8.51676 20 4.92676 16.41 4.92676 12C4.92676 7.59 8.51676 4 12.9268 4C17.3368 4 20.9268 7.59 20.9268 12C20.9268 16.41 17.3368 20 12.9268 20Z" fill="#0C0C0C"/>
</g>
</svg>
